<svg width="571" height="651" viewBox="0 0 571 651" fill="none" xmlns="http://www.w3.org/2000/svg">
<path d="M71.9375 589L90.9375 591.875C87.2292 602.167 81.6667 610.042 74.25 615.5C66.8333 620.917 58.1458 623.625 48.1875 623.625C36.9792 623.625 28.2083 620.25 21.875 613.5C15.5833 606.75 12.4375 596.958 12.4375 584.125C12.4375 573.708 14.5417 564.188 18.75 555.562C23 546.896 28.875 540.271 36.375 535.688C43.875 531.104 52.0417 528.812 60.875 528.812C70.7917 528.812 78.8125 531.479 84.9375 536.812C91.0625 542.104 94.6667 549.333 95.75 558.5L77.6875 560.25C76.6875 554.917 74.75 551.062 71.875 548.688C69.0417 546.271 65.25 545.062 60.5 545.062C55.2917 545.062 50.4167 546.646 45.875 549.812C41.375 552.979 37.7708 557.938 35.0625 564.688C32.3542 571.396 31 578.104 31 584.812C31 592.146 32.75 597.812 36.25 601.812C39.7917 605.812 44.1875 607.812 49.4375 607.812C54.3125 607.812 58.7708 606.229 62.8125 603.062C66.8958 599.896 69.9375 595.208 71.9375 589ZM123.25 574.438L105.75 572.938C107.75 567.021 111.229 562.396 116.188 559.062C121.188 555.729 127.792 554.062 136 554.062C144.542 554.062 150.854 555.792 154.938 559.25C159.021 562.667 161.062 566.854 161.062 571.812C161.062 573.812 160.875 575.938 160.5 578.188C160.167 580.438 158.938 586.354 156.812 595.938C155.062 603.854 154.188 609.396 154.188 612.562C154.188 615.396 154.688 618.542 155.688 622H138.25C137.542 619.583 137.104 617.083 136.938 614.5C134.312 617.417 131.292 619.667 127.875 621.25C124.458 622.792 121.021 623.562 117.562 623.562C112.062 623.562 107.521 621.771 103.938 618.188C100.354 614.562 98.5625 609.917 98.5625 604.25C98.5625 597.917 100.521 592.854 104.438 589.062C108.396 585.271 115.438 582.979 125.562 582.188C134.104 581.479 139.812 580.625 142.688 579.625C143.438 577.125 143.812 575.125 143.812 573.625C143.812 571.708 143.042 570.104 141.5 568.812C139.958 567.521 137.667 566.875 134.625 566.875C131.417 566.875 128.875 567.542 127 568.875C125.167 570.167 123.917 572.021 123.25 574.438ZM140.312 591.062C139.229 591.354 137.792 591.625 136 591.875C127 592.958 121.125 594.542 118.375 596.625C116.417 598.125 115.438 600.146 115.438 602.688C115.438 604.771 116.188 606.542 117.688 608C119.188 609.417 121.167 610.125 123.625 610.125C126.333 610.125 128.875 609.479 131.25 608.188C133.667 606.854 135.458 605.167 136.625 603.125C137.833 601.042 138.896 597.812 139.812 593.438L140.312 591.062ZM169.062 622L188.25 530.375H206.125L187 622H169.062ZM249.812 597L267.25 599.812C264.375 607.562 260.125 613.458 254.5 617.5C248.875 621.542 242.354 623.562 234.938 623.562C226.479 623.562 219.771 621.042 214.812 616C209.854 610.958 207.375 604.021 207.375 595.188C207.375 587.979 208.875 581.167 211.875 574.75C214.875 568.333 219.396 563.292 225.438 559.625C231.479 555.917 238.104 554.062 245.312 554.062C253.146 554.062 259.396 556.104 264.062 560.188C268.729 564.271 271.354 569.646 271.938 576.312L254.875 578.125C254.458 574.417 253.312 571.688 251.438 569.938C249.604 568.188 247.188 567.312 244.188 567.312C240.729 567.312 237.5 568.604 234.5 571.188C231.5 573.771 229.188 577.646 227.562 582.812C225.979 587.938 225.188 592.75 225.188 597.25C225.188 601.167 226.146 604.188 228.062 606.312C229.979 608.438 232.375 609.5 235.25 609.5C238.125 609.5 240.896 608.458 243.562 606.375C246.229 604.292 248.312 601.167 249.812 597ZM275.938 622L295.125 530.375H359.25L356 545.688H310.75L306.125 567.688H350.5L347.312 583H302.938L294.812 622H275.938ZM354.188 622L373.375 530.375H391.25L372.125 622H354.188ZM392.562 594.438C392.562 582.146 396.021 572.354 402.938 565.062C409.896 557.729 419.021 554.062 430.312 554.062C440.104 554.062 447.75 556.771 453.25 562.188C458.75 567.562 461.5 574.812 461.5 583.938C461.5 594.688 458.062 603.979 451.188 611.812C444.312 619.646 435.104 623.562 423.562 623.562C417.312 623.562 411.771 622.312 406.938 619.812C402.104 617.312 398.5 613.771 396.125 609.188C393.75 604.604 392.562 599.688 392.562 594.438ZM443.688 581.625C443.688 577.375 442.438 573.979 439.938 571.438C437.479 568.854 434.292 567.562 430.375 567.562C426.5 567.562 423.062 568.771 420.062 571.188C417.062 573.562 414.729 577.042 413.062 581.625C411.396 586.167 410.562 590.354 410.562 594.188C410.562 598.938 411.854 602.708 414.438 605.5C417.021 608.292 420.271 609.688 424.188 609.688C429.104 609.688 433.229 607.583 436.562 603.375C441.312 597.417 443.688 590.167 443.688 581.625ZM537.562 622H520.688L517.438 579.75L497.188 622H480.562L472.25 555.625H488.188L492.812 600.125L513.5 555.625H529.812L532.062 600.125L552.625 555.625H570.625L537.562 622Z" fill="#AEE4FF"/>
<rect x="53" y="52" width="150" height="150" rx="40" fill="#AEE4FF"/>
<rect x="359" y="52" width="150" height="150" rx="40" fill="#AED0FF"/>
<rect x="206" y="354" width="150" height="150" rx="40" fill="#AEBBFF"/>
<path d="M323.846 414.679C420.404 388.806 477.705 289.557 451.833 193" stroke="#AED0FF" stroke-width="40" stroke-linecap="round"/>
<path d="M116.126 201.075C90.254 297.632 147.555 396.881 244.113 422.754" stroke="#AEBBFF" stroke-width="40" stroke-linecap="round"/>
<path d="M134.737 141.773L161.76 234.299L67.0927 210.443L134.737 141.773Z" fill="#AEBBFF"/>
<path d="M404.973 127.986C334.288 57.3014 219.685 57.3014 149 127.986" stroke="#AEE4FF" stroke-width="40" stroke-linecap="round"/>
<path d="M343.404 132.506L410.017 62.8358L436.697 156.747L343.404 132.506Z" fill="#AEE4FF"/>
<path d="M374.787 451.626L281.143 428.779L349.127 358.713L374.787 451.626Z" fill="#AED0FF"/>
</svg>
